<?xml version="1.0" standalone="no"?>
<!DOCTYPE svg PUBLIC "-//W3C//DTD SVG 20010904//EN"
 "http://www.w3.org/TR/2001/REC-SVG-20010904/DTD/svg10.dtd">
<svg version="1.0" xmlns="http://www.w3.org/2000/svg"
 width="96.000000pt" height="96.000000pt" viewBox="0 0 96.000000 96.000000"
 preserveAspectRatio="xMidYMid meet">

<g transform="translate(0.000000,96.000000) scale(0.100000,-0.100000)"
fill="#000000" stroke="none">
<path d="M40 480 l0 -300 440 0 440 0 0 300 0 300 -440 0 -440 0 0 -300z m323
148 c15 -11 12 -13 -23 -13 -74 -1 -136 -73 -126 -148 8 -71 53 -115 128 -125
33 -4 38 -7 23 -13 -42 -16 -111 -10 -145 14 -57 38 -75 71 -75 137 0 66 18
99 75 138 37 25 115 30 143 10z m114 -110 c24 4 24 3 9 -21 -15 -22 -15 -26
-1 -37 22 -19 18 -31 -7 -21 -18 7 -28 4 -45 -12 l-23 -20 0 27 c0 19 -6 29
-20 33 -11 3 -20 9 -20 13 0 4 9 10 20 13 14 4 20 14 20 33 0 27 0 27 21 8 12
-11 32 -17 46 -16z"/>
</g>
</svg>
